<?xml version="1.0" encoding="UTF-8"?>
<svg version="1.1" xmlns="http://www.w3.org/2000/svg" width="4096" height="1092">
<path d="M0 0 C25.08 0 50.16 0 76 0 C78.64 2.97 81.28 5.94 84 9 C86.74061956 11.35176535 86.74061956 11.35176535 89.5546875 13.61328125 C91.25098514 15.24081006 91.96474281 16.90453966 93 19 C94.42777062 20.16213888 95.85746321 21.32207135 97.30078125 22.46484375 C99.9781505 24.88370838 102.00134584 27.75315419 104.1640625 30.62890625 C105.93657203 32.91808345 107.79913913 35.04951574 109.75 37.1875 C114.69968537 42.67436053 119.17755218 48.51509911 123.70996094 54.34570312 C125.49864436 56.6394425 127.3088324 58.91548157 129.125 61.1875 C130.05892578 62.35732422 130.05892578 62.35732422 131.01171875 63.55078125 C132.47583546 65.35431991 133.96076879 67.1410084 135.45703125 68.91796875 C136.27558594 69.89378906 137.09414062 70.86960937 137.9375 71.875 C138.68902344 72.75929688 139.44054688 73.64359375 140.21484375 74.5546875 C141.92060485 76.89124429 142.32421411 78.28468014 143 81 C143.99 81.33 144.98 81.66 146 82 C147.47045898 83.68652344 147.47045898 83.68652344 148.99609375 85.859375 C149.55490234 86.64570313 150.11371094 87.43203125 150.68945312 88.2421875 C151.26630859 89.06976563 151.84316406 89.89734375 152.4375 90.75 C153.58091106 92.3705826 154.72541482 93.99039488 155.87109375 95.609375 C156.41233887 96.37572266 156.95358398 97.14207031 157.51123047 97.93164062 C159.25802058 100.35847004 161.1065708 102.68627113 163 105 C164.00642948 106.32848691 165.00692179 107.66150329 166 109 C167.69098573 111.27026548 169.3996769 113.49103162 171.1875 115.6875 C173 118 173 118 174.3125 120.25 C175.88007858 122.80457251 177.5724971 125.03382614 179.4375 127.375 C183.04862124 131.95570348 186.13974415 136.41923244 188 142 C188.66 142 189.32 142 190 142 C190.9765625 143.72526042 191.953125 145.45052083 192.9296875 147.17578125 C193.89428581 148.81982289 194.94267059 150.41400588 196 152 C196.33 108.77 196.66 65.54 197 21 C194.69 20.34 192.38 19.68 190 19 C186.45135606 16.0822261 184.02742709 13.52067921 183 9 C183.33 6.03 183.66 3.06 184 0 C219.64 0 255.28 0 292 0 C292 110.22 292 220.44 292 334 C265.6 334 239.2 334 212 334 C203.58782201 320.33021077 203.58782201 320.33021077 201.1171875 315.1484375 C198.97723966 311.0331532 196.4487027 307.14103634 193.99609375 303.20703125 C192.36693432 300.58953635 190.76555345 297.96088536 189.1875 295.3125 C185.84705042 289.72067891 182.44110327 284.1692144 179.0390625 278.61474609 C176.56356443 274.57001963 174.10667938 270.51627473 171.6875 266.4375 C169.43373295 262.66405002 167.03974477 259.00779358 164.578125 255.3671875 C162.18783602 251.78175402 159.90411166 248.12999858 157.61328125 244.48046875 C156.05758478 242.01679583 156.05758478 242.01679583 154.3671875 239.87890625 C152.58126288 237.42453556 151.85458353 234.89243656 151 232 C150.34 232 149.68 232 149 232 C147.62719727 230.21166992 147.62719727 230.21166992 146.06640625 227.73046875 C145.49986328 226.84166016 144.93332031 225.95285156 144.34960938 225.03710938 C143.46499023 223.62655273 143.46499023 223.62655273 142.5625 222.1875 C141.40054504 220.345501 140.23530562 218.50556879 139.06640625 216.66796875 C138.55021729 215.84578857 138.03402832 215.0236084 137.50219727 214.17651367 C136.13646817 212.19772692 134.69949077 210.68208472 133 209 C132.608125 208.154375 132.21625 207.30875 131.8125 206.4375 C129.69262831 202.4170537 127.04757425 199.21017751 124.17578125 195.703125 C120.6044282 191.26618368 117.32002747 186.62616231 114 182 C112.58513702 180.04036314 111.16850055 178.08200539 109.75 176.125 C109.12609375 175.26132812 108.5021875 174.39765625 107.859375 173.5078125 C105.96474171 170.95244575 103.99242247 168.47993009 102 166 C99.69 163.03 97.38 160.06 95 157 C94.67 208.48 94.34 259.96 94 313 C96.31 313.66 98.62 314.32 101 315 C104.39453327 318.14210223 106.6773704 321.96805396 107.40625 326.55859375 C107.43457366 328.77137959 107.38421765 330.8211455 107 333 C106.67 333.33 106.34 333.66 106 334 C71.02 334 36.04 334 0 334 C0 223.78 0 113.56 0 0 Z " fill="#1B242B" transform="translate(3487,263)"/>
<path d="M0 0 C2.27998404 0.87164665 4.57163784 1.6089873 6.90234375 2.33203125 C11.986841 4.0178486 16.63029677 6.35968685 21.33984375 8.89453125 C22.27828125 9.38695312 23.21671875 9.879375 24.18359375 10.38671875 C45.85782441 22.30754561 62.10480043 42.11356052 69.33984375 65.89453125 C70.01699075 68.81491561 70.51431869 71.74402392 70.96484375 74.70703125 C71.08964111 75.49891846 71.21443848 76.29080566 71.34301758 77.10668945 C73.81526261 93.16233785 74.00485514 108.83137714 71.63427734 124.89697266 C71.36706931 126.70982189 71.1272789 128.52665963 70.890625 130.34375 C67.14706184 152.77857887 53.7420105 170.00820923 36.33984375 183.89453125 C31.78811961 186.89453125 31.78811961 186.89453125 29.33984375 186.89453125 C29.33984375 187.55453125 29.33984375 188.21453125 29.33984375 188.89453125 C27.37836501 190.28391202 25.37817799 191.62057235 23.33984375 192.89453125 C24.51546875 194.44140625 24.51546875 194.44140625 25.71484375 196.01953125 C38.93698096 213.7013917 38.93698096 213.7013917 43.32421875 222.07421875 C44.7191561 224.5743757 46.54026475 226.67505048 48.33984375 228.89453125 C48.79230469 229.81105469 49.24476563 230.72757813 49.7109375 231.671875 C51.34959394 234.9138212 53.21380872 237.7831485 55.27734375 240.76953125 C57.95485364 244.72970981 60.32843061 248.60279239 62.359375 252.921875 C63.50419669 255.22520151 64.81041563 257.38774984 66.15234375 259.58203125 C71.78119839 268.85059641 76.68021701 278.48806602 81.48193359 288.20214844 C83.68941612 292.65192839 86.01223832 297.00736148 88.52734375 301.29296875 C89.33984375 302.89453125 89.33984375 302.89453125 89.33984375 304.89453125 C91.13421875 304.80171875 91.13421875 304.80171875 92.96484375 304.70703125 C97.15033824 304.72917672 99.79635196 305.53220339 103.33984375 307.89453125 C106.98035946 311.58424312 109.48421163 314.62646794 109.46484375 319.89453125 C109.46742188 320.59578125 109.47 321.29703125 109.47265625 322.01953125 C109.33984375 323.89453125 109.33984375 323.89453125 108.33984375 325.89453125 C93.41489665 326.01132155 78.48998495 326.09949819 63.56467819 326.15359211 C56.63459754 326.17937634 49.70480078 326.21453033 42.77490234 326.27172852 C36.08998958 326.32687834 29.405433 326.35593437 22.72028351 326.36891747 C20.16690675 326.37817237 17.61354655 326.39624455 15.0602951 326.42318153 C11.49003392 326.45935777 7.92100022 326.46448112 4.35058594 326.4621582 C3.28963211 326.48013458 2.22867828 326.49811096 1.13557434 326.51663208 C-6.02163253 326.46607977 -6.02163253 326.46607977 -9.25408936 323.57267761 C-10.91248427 320.41392015 -12.28838126 317.18750944 -13.66015625 313.89453125 C-14.91152708 311.76615366 -16.20409017 309.6614983 -17.53515625 307.58203125 C-20.49206012 302.89863569 -23.10944424 298.15402198 -25.51171875 293.1640625 C-26.98416563 290.254227 -28.71387725 287.5579807 -30.48046875 284.8203125 C-31.65125252 282.90906615 -32.63260229 280.97885918 -33.59765625 278.95703125 C-35.44468169 275.15171379 -37.69697847 271.74504876 -40.08203125 268.2578125 C-42.27522257 264.97345421 -44.2676424 261.57991362 -46.28125 258.18359375 C-47.98351216 255.35774211 -49.81583361 252.62921654 -51.66015625 249.89453125 C-52.08941406 249.17007812 -52.51867188 248.445625 -52.9609375 247.69921875 C-55.095836 244.17540927 -57.37041667 240.75653884 -59.66015625 237.33203125 C-60.0984375 236.67267578 -60.53671875 236.01332031 -60.98828125 235.33398438 C-62.75784597 232.6823023 -64.51956756 230.07602397 -66.47265625 227.5546875 C-67.66015625 225.89453125 -67.66015625 225.89453125 -67.66015625 223.89453125 C-68.32015625 223.89453125 -68.98015625 223.89453125 -69.66015625 223.89453125 C-70.9140625 222.1796875 -70.9140625 222.1796875 -72.22265625 219.95703125 C-73.73519695 217.26747672 -73.73519695 217.26747672 -75.66015625 214.89453125 C-80.94015625 214.56453125 -86.22015625 214.23453125 -91.66015625 213.89453125 C-91.66015625 243.92453125 -91.66015625 273.95453125 -91.66015625 304.89453125 C-89.35015625 305.55453125 -87.04015625 306.21453125 -84.66015625 306.89453125 C-81.26562298 310.03663348 -78.98278585 313.86258521 -78.25390625 318.453125 C-78.22558259 320.66591084 -78.2759386 322.71567675 -78.66015625 324.89453125 C-78.99015625 325.22453125 -79.32015625 325.55453125 -79.66015625 325.89453125 C-114.97015625 325.89453125 -150.28015625 325.89453125 -186.66015625 325.89453125 C-186.66015625 217.98453125 -186.66015625 110.07453125 -186.66015625 -1.10546875 C-164.52806553 -9.95830504 -138.17617607 -9.75808713 -114.66015625 -11.10546875 C-112.71665283 -11.22148437 -112.71665283 -11.22148437 -110.73388672 -11.33984375 C-74.05515933 -13.44067682 -34.69147664 -13.4168885 0 0 Z M-91.66015625 72.89453125 C-91.66015625 92.69453125 -91.66015625 112.49453125 -91.66015625 132.89453125 C-62.58854496 133.46740067 -62.58854496 133.46740067 -35.66015625 124.89453125 C-34.52578125 124.31703125 -33.39140625 123.73953125 -32.22265625 123.14453125 C-26.58360641 118.19317041 -24.46115236 112.73416672 -23.72265625 105.33203125 C-23.4248807 97.32931325 -24.48769196 91.15219951 -29.64453125 84.78125 C-45.31133028 70.11639742 -73.15018601 72.89453125 -91.66015625 72.89453125 Z " fill="#1B242B" transform="translate(2667.66015625,271.10546875)"/>
<path d="M0 0 C35.64 0 71.28 0 108 0 C108 12.71428571 108 12.71428571 105 17 C102.66878305 19.33121695 101.68293269 19.98176144 98.3671875 20.0703125 C97.58601563 20.04710937 96.80484375 20.02390625 96 20 C96.03722642 45.44390658 96.09717507 70.8876728 96.18390274 96.33146095 C96.22365003 108.1464319 96.25606443 119.96133666 96.27099609 131.77636719 C96.28403494 142.07874379 96.31105659 152.38097449 96.35461307 162.6832689 C96.37717759 168.134283 96.39291368 173.58511747 96.39188385 179.0361824 C96.39113428 184.17609062 96.40920392 189.31560251 96.44116783 194.4554081 C96.44962545 196.33297605 96.45144518 198.21058867 96.44580269 200.08816719 C96.40335254 216.3971281 98.2973257 232.34815104 109.796875 244.97265625 C119.07050931 253.3230305 130.60371866 254.47157169 142.69140625 254.25390625 C151.27112151 253.59548654 158.76948388 251.65966594 166 247 C166.66 247 167.32 247 168 247 C168.33 246.01 168.66 245.02 169 244 C169.763125 243.443125 170.52625 242.88625 171.3125 242.3125 C179.77058375 235.03461398 182.02100269 220.59767272 183 210 C183.13648814 207.02114632 183.15454439 204.04723097 183.15821838 201.06555176 C183.16315636 200.20117036 183.16809434 199.33678897 183.17318195 198.4462142 C183.18845917 195.56896232 183.19689088 192.69173258 183.20532227 189.81445312 C183.21490849 187.74433195 183.224919 185.6742127 183.23532104 183.60409546 C183.26229554 177.99732236 183.28334537 172.3905409 183.30332303 166.78373909 C183.32522868 160.91940931 183.35259493 155.05510506 183.37937927 149.1907959 C183.42924432 138.09171216 183.47420606 126.9926142 183.51740164 115.89350271 C183.57607165 100.89115279 183.64232522 85.88883648 183.70815182 70.88651657 C183.81162968 47.25770038 183.90498321 23.62885524 184 0 C219.31 0 254.62 0 291 0 C292.99743724 5.99231173 292.08170315 10.58865012 289.65625 16.203125 C287.77669964 18.24225983 286.48081898 18.69191886 283.89648438 19.61230469 C283.16892944 19.8745282 282.44137451 20.13675171 281.69177246 20.40692139 C281.13348755 20.60263733 280.57520264 20.79835327 280 21 C279.99641747 22.54442307 279.99641747 22.54442307 279.99276257 24.12004662 C279.93382287 49.23713779 279.85785131 74.35413416 279.76428509 99.47112083 C279.71942557 111.61778263 279.67998844 123.76441576 279.65356445 135.91113281 C279.6305044 146.505049 279.59701768 157.09887369 279.55129844 167.69271719 C279.52747378 173.29585388 279.50867479 178.89890055 279.50238609 184.50208664 C279.49628622 189.78968586 279.47611198 195.07705508 279.44572449 200.36456871 C279.43702209 202.29206042 279.43320522 204.21958229 279.43499184 206.14709282 C279.44587198 223.3210887 277.24555227 239.34282682 272.25 255.8125 C271.90146973 256.97322021 271.55293945 258.13394043 271.19384766 259.32983398 C268.64009092 267.55339394 265.6544647 274.72671119 261 282 C260.48566406 282.90363281 259.97132813 283.80726563 259.44140625 284.73828125 C255.20754955 292.16127676 250.09530187 298.04644934 244 304 C243.29488281 304.72703125 242.58976562 305.4540625 241.86328125 306.203125 C241.08339844 307.00234375 240.30351563 307.8015625 239.5 308.625 C238.7678125 309.38039063 238.035625 310.13578125 237.28125 310.9140625 C231.71910112 316 231.71910112 316 228 316 C228 316.66 228 317.32 228 318 C195.62509974 341.42014061 147.22443598 345.3542597 108.81762695 339.47387695 C106.20160702 339.02439828 103.60153248 338.5267526 101 338 C99.60394531 337.71793701 99.60394531 337.71793701 98.1796875 337.43017578 C75.05128927 332.53253485 52.19601428 322.82175056 36 305 C36 304.34 36 303.68 36 303 C35.09507813 302.59394531 35.09507813 302.59394531 34.171875 302.1796875 C23.89169771 296.59585019 16.15141099 280.40101191 12.1015625 269.828125 C11.3685512 267.94620946 10.59223564 266.08058227 9.7734375 264.234375 C6.87877158 257.4505567 5.15831841 250.79755812 3.8125 243.5625 C3.6578125 242.7487793 3.503125 241.93505859 3.34375 241.09667969 C0.31389446 223.60914393 -0.29632293 205.93036471 -0.22705078 188.22509766 C-0.22648464 186.15291347 -0.22680718 184.08072888 -0.22793579 182.00854492 C-0.22850238 176.46040145 -0.21686237 170.912347 -0.20278788 165.36422396 C-0.19016297 159.53736623 -0.18910085 153.71050577 -0.18673706 147.88363647 C-0.18055647 136.88415032 -0.16419266 125.88470461 -0.14403808 114.88523614 C-0.11735903 99.99726086 -0.10667875 85.10927427 -0.09503365 70.22128105 C-0.07630905 46.81415716 -0.03644077 23.40711855 0 0 Z " fill="#1B242B" transform="translate(1323,263)"/>
<path d="M0 0 C12.89072255 -0.0231211 25.7814402 -0.04091389 38.67217922 -0.05181217 C44.65719266 -0.05704151 50.64219196 -0.06414008 56.62719727 -0.07543945 C62.39783429 -0.08626653 68.16845768 -0.09227645 73.93910408 -0.09487724 C76.14602943 -0.09673182 78.352954 -0.10035304 80.55987358 -0.10573006 C83.63946041 -0.1129381 86.71899014 -0.11399104 89.79858398 -0.11352539 C90.72071182 -0.11712067 91.64283966 -0.12071594 92.59291077 -0.12442017 C98.88594784 -0.11405216 98.88594784 -0.11405216 100 1 C100.62556686 6.71431266 100.1690201 11.07041317 97 16 C96.01807881 17.01775772 95.02122412 18.02168446 94 19 C95.60850237 26.12097404 98.47595452 32.16242615 102.04296875 38.46899414 C104.1419392 42.21607861 105.77914888 45.91834956 107.22705078 49.95996094 C108.57369273 53.51414291 110.276629 56.89691682 111.9375 60.3125 C114.62842947 65.92255852 116.99169924 71.493188 119.00390625 77.38671875 C120.56238846 81.47544268 122.63232693 85.28926575 124.6328125 89.17578125 C125.78617124 91.55829088 126.67050529 93.78899272 127.4375 96.3125 C128.70940331 100.47440845 130.5010991 104.33242683 132.375 108.25 C135.13919999 114.03883234 137.57361914 119.87351005 139.8203125 125.88671875 C140.98297423 128.95506774 142.22428122 131.97710114 143.5 135 C145.69925742 140.22323637 147.73728926 145.49699328 149.75390625 150.79296875 C150.93143601 153.82353908 152.16954302 156.81882521 153.4375 159.8125 C155.71851094 165.22810774 157.79382883 170.70550352 159.83740234 176.21362305 C161.19642457 179.87263028 162.58812609 183.5104059 164.0625 187.125 C165.61151492 190.94335365 167.00699168 194.80061921 168.375 198.6875 C170.33802759 204.24640992 172.47151268 209.71184598 174.69433594 215.17138672 C176.93273204 220.72151995 178.92246249 226.34649902 180.88378906 231.99951172 C182.22628834 235.85541858 183.63082703 239.66123629 185.1875 243.4375 C186.41677353 246.43073108 187.43764475 249.38530451 188.3125 252.5 C189.96227325 258.25141944 192.1837071 263.7648023 194.3996582 269.31640625 C196.15810126 273.74197548 197.75250347 278.1860052 199.23193359 282.7121582 C200.84509663 287.51729196 202.68154427 292.24508143 204.48242188 296.98242188 C206.33782758 301.94229725 207.8115625 306.83827892 209 312 C209.87011719 312.14695312 209.87011719 312.14695312 210.7578125 312.296875 C217.01006222 313.49367528 221.47785233 315.22563756 225.875 320.0625 C227 323 227 323 227 334 C190.04 334 153.08 334 115 334 C111.84512859 326.42830862 108.98066095 319.2217974 106.625 311.4375 C104.109822 303.31690864 101.35209749 295.3341277 98.35742188 287.37890625 C96.54283195 282.53999977 94.89149568 277.6978547 93.5078125 272.71484375 C93.02748535 270.90926739 93.02748535 270.90926739 92 269 C58.34 269 24.68 269 -10 269 C-12.92832279 276.61363925 -15.58738695 283.77523484 -17.890625 291.515625 C-19.40967392 296.28672232 -21.17881806 300.9504631 -22.98217773 305.62036133 C-24.17300227 308.71728217 -25.31329 311.74846952 -26 315 C-25.13375 315.3403125 -25.13375 315.3403125 -24.25 315.6875 C-20.85777937 317.66629537 -18.74506529 320.50986942 -17 324 C-16.90527088 325.51845202 -16.8701159 327.04110384 -16.875 328.5625 C-16.87113281 329.77099609 -16.87113281 329.77099609 -16.8671875 331.00390625 C-17 333 -17 333 -18 334 C-19.48016394 334.09568576 -20.96488273 334.12188268 -22.44813538 334.12025452 C-23.88901772 334.12231651 -23.88901772 334.12231651 -25.35900879 334.12442017 C-26.42139771 334.12082489 -27.48378662 334.11722961 -28.57836914 334.11352539 C-30.24644875 334.11374443 -30.24644875 334.11374443 -31.94822693 334.1139679 C-35.64388951 334.11326821 -39.33950241 334.1054732 -43.03515625 334.09765625 C-45.58963493 334.09579227 -48.14411397 334.09436827 -50.69859314 334.09336853 C-56.7476171 334.08993344 -62.79661955 334.08204264 -68.84563488 334.07201904 C-75.73065154 334.06085683 -82.61566904 334.05534718 -89.50069249 334.05032361 C-103.6671383 334.03986 -117.83356817 334.02226123 -132 334 C-131.7970784 333.32394211 -131.5941568 332.64788422 -131.38508606 331.95133972 C-131.11725815 331.05885025 -130.84943024 330.16636078 -130.57348633 329.24682617 C-130.17629143 327.92336433 -130.17629143 327.92336433 -129.77107239 326.57316589 C-129.30752497 325.02624966 -128.84508029 323.47900145 -128.3848114 321.93110657 C-125.7930622 313.23792868 -122.86579447 304.8542265 -119.33203125 296.5 C-118.15380677 293.40413745 -117.34262862 290.37842096 -116.58325195 287.16064453 C-115.45204691 282.97011938 -113.77739951 278.97105835 -112.1875 274.9375 C-109.284176 267.46292933 -106.62184897 259.97539162 -104.1484375 252.34765625 C-102.69805254 248.11983343 -100.9460585 244.05637193 -99.1796875 239.953125 C-97.95165622 236.87898048 -96.99096288 233.80172423 -96.0625 230.625 C-94.28862626 224.6039245 -91.90094835 218.99344029 -89.3671875 213.2578125 C-88.2372432 210.56531665 -87.33352207 207.99554333 -86.5625 205.1875 C-85.06091692 199.77646987 -82.86651065 194.69992807 -80.69213867 189.53344727 C-78.76849645 184.93850213 -77.00914519 180.33092443 -75.375 175.625 C-73.92821527 171.47376798 -72.36780134 167.47922894 -70.5 163.5 C-68.07758704 158.33822285 -66.19418714 153.05991238 -64.31640625 147.6796875 C-62.06229366 141.37887425 -59.53234808 135.19316958 -57 129 C-56.56558594 127.93523437 -56.13117188 126.87046875 -55.68359375 125.7734375 C-53.7124647 120.99082344 -51.67421875 116.25637411 -49.5 111.5625 C-47.17950451 106.52267386 -45.21083558 101.38516269 -43.25390625 96.1953125 C-41.71657519 92.27775235 -39.95658539 88.4889379 -38.1796875 84.67578125 C-37.00194334 82.00440791 -36.01737832 79.32059896 -35.0625 76.5625 C-33.2604421 71.44086176 -30.91986139 66.72433074 -28.4375 61.90234375 C-27.14786199 59.29853657 -26.04082702 56.71048704 -25 54 C-23.13066067 49.13971775 -20.80479544 44.57538708 -18.4375 39.94140625 C-17.1484241 37.30370475 -16.04290657 34.67947519 -15 31.9375 C-13.21458014 27.28796912 -10.88442648 23.07503658 -8.44921875 18.73828125 C-6.67070068 15.37779292 -5.28076716 11.94690346 -3.95703125 8.38671875 C-2.80056935 5.50264438 -1.40059852 2.77246804 0 0 Z M40 120 C37.26125216 125.60096381 34.86377857 131.12999388 33.125 137.125 C31.34157832 143.21473257 29.03889085 148.97095105 26.58007812 154.80932617 C24.47147726 159.82068371 22.52836804 164.86486492 20.7265625 169.99609375 C20 172 20 172 19 174 C18.40001234 178.09005953 18.40001234 178.09005953 19 182 C22.33893419 185.56228655 24.51259113 187.29295242 29.44482422 187.56762695 C31.14831713 187.56684278 32.85195051 187.53903044 34.5546875 187.48828125 C35.45623566 187.48120651 36.35778381 187.47413177 37.28665161 187.46684265 C40.1502986 187.43897892 43.0119497 187.376257 45.875 187.3125 C47.82288832 187.28740669 49.77080745 187.26459533 51.71875 187.24414062 C56.4799291 187.18917868 61.23962683 187.10296295 66 187 C64.99076513 182.16122419 63.97764338 177.4552702 62.16015625 172.84375 C61.81919922 171.96589844 61.47824219 171.08804688 61.12695312 170.18359375 C60.77568359 169.29800781 60.42441406 168.41242188 60.0625 167.5 C56.08774074 157.36768233 56.08774074 157.36768233 54.4609375 152.3671875 C53.04240581 148.0218241 51.34347354 143.83256836 49.5625 139.625 C46.85408889 133.1455647 44.30725093 126.63513776 42 120 C41.34 120 40.68 120 40 120 Z " fill="#1B242B" transform="translate(746,263)"/>
<path d="M0 0 C77.22 0 154.44 0 234 0 C234 31.68 234 63.36 234 96 C230.8021417 97.59892915 227.47852787 97.36262646 224 97 C219.41315069 95.07992355 216.92284067 91.8971209 214 88 C213.67 87.01 213.34 86.02 213 85 C174.06 84.67 135.12 84.34 95 84 C95 97.86 95 111.72 95 126 C105.38146484 125.94779297 105.38146484 125.94779297 115.97265625 125.89453125 C120.36133658 125.87919982 124.74998382 125.86475772 129.13867188 125.85351562 C136.10220206 125.83559319 143.06561371 125.81440708 150.02905273 125.77368164 C155.64411657 125.74104822 161.25905327 125.72313846 166.87420464 125.71536827 C169.01478514 125.70983195 171.15535881 125.69902086 173.29588509 125.68280983 C176.29775062 125.66098293 179.29909306 125.65803532 182.30102539 125.65942383 C183.1828801 125.648638 184.0647348 125.63785217 184.97331238 125.6267395 C192.97068855 125.66667811 198.55923869 128.13364701 205 133 C220.26000046 148.68388936 211 194.28522181 211 202 C172.72 202 134.44 202 95 202 C95 218.17 95 234.34 95 251 C133.94 251 172.88 251 213 251 C213.99 248.03 213.99 248.03 215 245 C217.12799278 241.64999157 219.14701206 239.28432931 223 238 C226.63 238 230.26 238 234 238 C234 269.68 234 301.36 234 334 C156.78 334 79.56 334 0 334 C0 223.78 0 113.56 0 0 Z " fill="#1B252C" transform="translate(3157,263)"/>
<path d="M0 0 C76.89 0 153.78 0 233 0 C233 31.68 233 63.36 233 96 C231.44969882 97.55030118 229.96323999 97.24405099 227.8125 97.3125 C221.98249135 97.24772213 218.99285064 94.7235465 214.6875 91 C213 89 213 89 212 85 C173.06 84.67 134.12 84.34 94 84 C94 97.86 94 111.72 94 126 C100.89777344 125.95359375 107.79554688 125.9071875 114.90234375 125.859375 C119.28191617 125.83892789 123.66142942 125.81967146 128.04101562 125.8046875 C134.98685994 125.78081064 141.93249258 125.75261631 148.87817383 125.69824219 C154.48028948 125.65466245 160.08217801 125.63083707 165.68445015 125.62049103 C167.81781144 125.61312145 169.95116082 125.59873046 172.08442497 125.57707977 C175.08121111 125.54788496 178.0770683 125.54405076 181.07397461 125.54589844 C181.94863876 125.53151733 182.82330292 125.51713623 183.72447205 125.50231934 C191.1568132 125.55164424 197.33451707 127.81125749 203.3125 132.25 C210.15914379 139.25586807 210.13983226 144.67798715 211 155 C210.67 170.51 210.34 186.02 210 202 C171.72 202 133.44 202 94 202 C94 218.17 94 234.34 94 251 C132.94 251 171.88 251 212 251 C212.66 248.69 213.32 246.38 214 244 C216.17384619 241.36539293 218.9401358 239.5299321 222 238 C225.63 238 229.26 238 233 238 C233 269.68 233 301.36 233 334 C156.11 334 79.22 334 0 334 C0 223.78 0 113.56 0 0 Z " fill="#1B252C" transform="translate(2160,263)"/>
<path d="M0 0 C0.763125 0.22526367 1.52625 0.45052734 2.3125 0.68261719 C15.98122902 4.76492956 31.45581998 11.18448282 42 21 C42 21.66 42 22.32 42 23 C42.71285156 23.2165625 43.42570312 23.433125 44.16015625 23.65625 C47.66904309 25.3165761 49.90239411 27.64555972 52.4375 30.5 C52.9212207 31.03898926 53.40494141 31.57797852 53.90332031 32.13330078 C57.95940464 36.75810977 61.13564773 41.55211431 64 47 C64.57363281 47.98871094 65.14726562 48.97742188 65.73828125 49.99609375 C81.08901594 77.90353218 81.05324232 118.10919642 72.85205078 148.30566406 C70.73230063 155.00869061 67.52751345 160.95483779 64 167 C63.40637338 168.29965099 62.81533495 169.60048652 62.2265625 170.90234375 C59.79431889 175.82732569 56.22698172 179.51646443 52.4375 183.4375 C51.42913086 184.51547852 51.42913086 184.51547852 50.40039062 185.61523438 C45.40998344 190.86333885 45.40998344 190.86333885 42 192 C41.67 192.99 41.34 193.98 41 195 C38.99609375 196.4296875 38.99609375 196.4296875 36.4375 197.875 C33.26582883 199.69186963 30.16479184 201.53383892 27.125 203.5625 C22.05506771 206.74263789 16.55260284 208.81692538 11 211 C9.95457031 211.43570313 8.90914062 211.87140625 7.83203125 212.3203125 C0.67799294 215.23072516 -6.33301939 217.18924695 -13.91992188 218.60546875 C-16.25848958 219.04902807 -18.58971902 219.52390369 -20.921875 220 C-26.26796605 221.07835768 -31.62603161 222.07074484 -37 223 C-37.7101123 223.12294434 -38.42022461 223.24588867 -39.15185547 223.37255859 C-55.67267291 226.07024638 -72.26401605 225 -89 225 C-89 252.06 -89 279.12 -89 307 C-86.69 307.66 -84.38 308.32 -82 309 C-78.60546673 312.14210223 -76.3226296 315.96805396 -75.59375 320.55859375 C-75.56542634 322.77137959 -75.61578235 324.8211455 -76 327 C-76.33 327.33 -76.66 327.66 -77 328 C-112.31 328 -147.62 328 -184 328 C-184 220.09 -184 112.18 -184 1 C-161.9381466 -7.82474136 -135.76466418 -7.58470075 -112.33508301 -8.87109375 C-110.22147422 -8.98777371 -108.10828065 -9.10993717 -105.99511719 -9.234375 C-70.62975759 -11.24916404 -34.04295059 -10.4737406 0 0 Z M-89 75 C-89 96.45 -89 117.9 -89 140 C-67.01498565 140.18446918 -67.01498565 140.18446918 -46 137 C-45.0925 136.83371094 -44.185 136.66742188 -43.25 136.49609375 C-34.34616784 134.82662522 -28.73609671 131.68053539 -23.40625 124.21875 C-18.89872219 117.10687279 -18.28607161 108.01027854 -19.625 99.8125 C-21.57974085 91.56060741 -25.885036 86.27275363 -32.94140625 81.7578125 C-49.76135725 72.13828046 -70.6194194 75 -89 75 Z " fill="#1B242B" transform="translate(2006,269)"/>
<path d="M0 0 C0.86444733 -0.00701431 1.72889465 -0.01402863 2.61953735 -0.02125549 C5.39875536 -0.03869202 8.17776054 -0.04510898 10.95703125 -0.046875 C11.90460297 -0.04754974 12.85217468 -0.04822449 13.82846069 -0.04891968 C27.37782378 -0.03355352 40.48350429 0.32618481 53.76953125 3.203125 C54.61064453 3.36941406 55.45175781 3.53570312 56.31835938 3.70703125 C69.02039151 6.23061379 80.71587669 10.19754738 92.60205078 15.30249023 C94.67443247 16.16360941 96.76099152 16.93165672 98.875 17.68359375 C102.92874557 19.1794929 106.56086138 21.19009449 110.26953125 23.390625 C110.90117188 23.75865234 111.5328125 24.12667969 112.18359375 24.50585938 C113.71546083 25.39944851 115.24297887 26.30048658 116.76953125 27.203125 C115.3875279 38.06946504 111.58549861 47.87939208 107.33959961 57.8972168 C105.12022717 63.18810064 103.39625263 68.51532556 101.796875 74.02734375 C100.66271638 77.53331697 99.25931059 80.83347448 97.76953125 84.203125 C95.34003664 89.70145491 93.46382023 95.17274461 91.78125 100.9375 C90.0678885 106.46788691 87.91575283 111.82877507 85.76953125 117.203125 C80.77118133 117.49714558 77.71890807 117.40532242 73.76953125 114.203125 C69.30450176 108.24975234 68.65173367 104.3887774 68.76953125 97.203125 C67.91746094 96.93371094 67.06539062 96.66429687 66.1875 96.38671875 C62.72033753 95.18608992 59.43949686 93.74321065 56.08203125 92.265625 C35.58939893 83.88412819 9.83154039 83.22489177 -11.38671875 88.9375 C-14.48255014 90.31531507 -15.61842216 91.25867255 -17.23046875 94.203125 C-18.31524545 98.92965205 -18.90926278 102.9153891 -16.6015625 107.41796875 C-10.0785071 115.91094972 0.2128157 119.25816454 9.94677734 122.56689453 C12.38474046 123.41786317 14.76194884 124.39631896 17.14453125 125.390625 C20.21954971 126.64511014 23.25327005 127.6452087 26.45703125 128.515625 C31.62439079 129.99433481 36.353298 132.26762573 41.17944336 134.58959961 C44.74590075 136.29428479 48.26789187 137.81201964 52.01953125 139.078125 C69.46328513 145.20420523 86.41463179 154.28117739 99.76953125 167.203125 C100.65640625 168.04875 101.54328125 168.894375 102.45703125 169.765625 C105.02880995 172.47641877 107.38386852 175.32809556 109.76953125 178.203125 C110.47078125 178.863125 111.17203125 179.523125 111.89453125 180.203125 C114.18319516 182.6443665 115.28110445 185.20803088 116.76953125 188.203125 C117.31351563 189.04488281 117.8575 189.88664063 118.41796875 190.75390625 C127.07946198 204.6083762 129.43115326 223.05766069 129.76953125 239.203125 C129.80820312 239.98171875 129.846875 240.7603125 129.88671875 241.5625 C130.43071022 259.57466188 127.08146346 279.58484101 117.76953125 295.203125 C117.29128906 296.05648438 116.81304688 296.90984375 116.3203125 297.7890625 C112.9845846 303.42668495 109.11084066 308.32096443 104.70703125 313.140625 C104.21259521 313.68436768 103.71815918 314.22811035 103.20874023 314.78833008 C100.01813431 318.17970273 96.73300839 320.70997002 92.76953125 323.203125 C91.29008669 324.30691929 89.8109131 325.41107688 88.33203125 326.515625 C51.36412568 352.38205743 -5.43405868 352.4525582 -48.23046875 345.203125 C-49.32536621 345.03151855 -50.42026367 344.85991211 -51.54833984 344.68310547 C-65.71969507 342.45495505 -78.9716365 339.52956407 -92.23339844 334.015625 C-95.19585139 332.81036297 -98.21783561 331.77553773 -101.23046875 330.703125 C-106.55076448 328.65633607 -111.11542428 325.95549037 -115.83984375 322.78515625 C-118.55451374 320.98868347 -121.27774408 319.55978228 -124.23046875 318.203125 C-123.74670266 314.23624308 -122.76375837 311.05405591 -121.109375 307.43359375 C-119.95931558 304.51499852 -119.17795545 301.54250924 -118.35546875 298.515625 C-116.81154109 292.9539765 -114.87872081 287.80316261 -112.578125 282.51953125 C-110.95744108 278.53123952 -109.620277 274.48401954 -108.29296875 270.390625 C-106.42387007 264.63199225 -104.41570317 258.98717705 -102.10546875 253.390625 C-99.75968928 247.67355513 -97.81102519 241.94135904 -96.08984375 236.0078125 C-95.27083869 233.3348778 -94.30719137 230.78159233 -93.23046875 228.203125 C-88.35190582 228.30732732 -84.43218093 228.45205489 -80.23046875 231.078125 C-76.92038072 236.25013754 -76.23046875 242.12230324 -76.23046875 248.203125 C-71.00110267 250.29252379 -65.75930852 252.34228591 -60.49414062 254.33984375 C-58.68684212 255.02908097 -56.88699305 255.7378417 -55.08984375 256.453125 C-34.26434183 263.89911451 -8.03562752 264.26766462 13.70703125 261.015625 C14.4225415 260.91491699 15.13805176 260.81420898 15.87524414 260.71044922 C21.06823232 259.78992191 24.87875954 257.77998294 28.76953125 254.203125 C31.28859622 250.55334337 31.78256842 246.95928098 31.70703125 242.578125 C29.29275804 233.88674145 23.19902458 229.83972817 15.81640625 225.4453125 C8.36220463 221.28608406 0.77660564 218.11916291 -7.23046875 215.203125 C-9.39802315 214.35121359 -11.56469144 213.49704415 -13.73046875 212.640625 C-18.02269608 210.97945048 -22.31183285 209.55085323 -26.73046875 208.265625 C-32.48127323 206.55424102 -37.73094031 204.22736067 -43.12890625 201.625 C-45.89359686 200.35755997 -48.58904881 199.37907821 -51.48046875 198.453125 C-60.60143918 195.28705698 -70.94418101 189.61429724 -78.23046875 183.203125 C-78.23046875 182.543125 -78.23046875 181.883125 -78.23046875 181.203125 C-78.95234375 180.955625 -79.67421875 180.708125 -80.41796875 180.453125 C-86.07368862 177.93947173 -89.65174293 173.73822941 -93.58203125 169.10546875 C-95.17136346 167.20763324 -95.17136346 167.20763324 -96.8671875 165.65625 C-98.897689 163.49193322 -99.41929017 161.01105086 -100.23046875 158.203125 C-100.89046875 158.203125 -101.55046875 158.203125 -102.23046875 158.203125 C-108.04067896 150.96166067 -110.76181351 142.00529739 -113.23046875 133.203125 C-113.55273438 132.07519531 -113.875 130.94726562 -114.20703125 129.78515625 C-118.21040875 113.22913248 -117.8133394 94.57551787 -113.23046875 78.203125 C-113.04774414 77.47996094 -112.86501953 76.75679688 -112.67675781 76.01171875 C-108.82673626 60.86450751 -102.25371575 47.77370528 -90.89477539 36.86450195 C-89.01220882 35.04774632 -89.01220882 35.04774632 -86.78515625 32.13671875 C-83.65815589 28.54592781 -80.2478101 25.97489595 -76.35546875 23.265625 C-75.61312988 22.74492432 -74.87079102 22.22422363 -74.10595703 21.68774414 C-67.15934543 16.93880127 -59.98942784 13.43452443 -52.23046875 10.203125 C-51.11929688 9.68878906 -50.008125 9.17445313 -48.86328125 8.64453125 C-44.68918097 6.98835598 -40.62045548 6.07748298 -36.23046875 5.203125 C-34.6453684 4.86021507 -33.06073401 4.51514446 -31.4765625 4.16796875 C-29.87381186 3.82498794 -28.27094675 3.48254164 -26.66796875 3.140625 C-25.86939453 2.96724609 -25.07082031 2.79386719 -24.24804688 2.61523438 C-23.45720703 2.44701172 -22.66636719 2.27878906 -21.8515625 2.10546875 C-21.15474365 1.95585693 -20.4579248 1.80624512 -19.73999023 1.65209961 C-13.12715333 0.46900718 -6.70281911 0.03634104 0 0 Z " fill="#1B242B" transform="translate(433.23046875,255.796875)"/>
<path d="M0 0 C1.39887955 0.00273422 1.39887955 0.00273422 2.82601929 0.00552368 C16.25373399 0.04977868 29.27244807 0.46175559 42.4375 3.3125 C43.27861328 3.47878906 44.11972656 3.64507812 44.98632812 3.81640625 C57.61785386 6.3259809 69.27855363 10.2408361 81.09692383 15.32543945 C83.60741347 16.38415538 86.14037601 17.37198283 88.6796875 18.359375 C92.29679734 19.79772296 95.58497798 21.39849168 98.875 23.5 C101.46860418 25.14441999 103.50957011 26.33652337 106.4375 27.3125 C105.48739846 32.24185037 104.38611817 36.74728288 102.27734375 41.33203125 C101.23786948 43.78325663 100.440525 46.27794306 99.625 48.8125 C97.90502557 54.08360033 95.89582174 59.18742264 93.79199219 64.31567383 C91.46824946 70.06468314 89.53789143 75.91715986 87.62426758 81.81298828 C85.85331309 87.2139038 83.78615343 92.4190849 81.52734375 97.63671875 C80.13962668 101.04383773 79.12876024 104.50634235 78.12890625 108.04296875 C77.1480635 111.26257122 75.8342548 114.25294186 74.4375 117.3125 C68.73160528 117.76897158 65.83651992 117.01167584 61.4375 113.3125 C57.26953252 108.72773578 58.16190643 103.14079364 58.4375 97.3125 C57.220625 96.920625 56.00375 96.52875 54.75 96.125 C51.97026999 95.21424995 49.27406158 94.24350755 46.578125 93.10546875 C25.50237504 84.25258393 -0.79091443 82.97408898 -22.75390625 89.14453125 C-25.44119167 90.26205328 -26.83749761 91.00668873 -28.5625 93.3125 C-30.01735233 97.67705698 -30.57051949 103.9617911 -28.5625 108.3125 C-27.23200347 108.98481035 -25.89824002 109.6506686 -24.5625 110.3125 C-23.44400568 111.21162861 -22.34065706 112.12980017 -21.25 113.0625 C-16.40123818 116.78048714 -10.95421536 118.73483766 -5.30078125 120.87109375 C-2.10185876 122.08029454 0.97664219 123.46008345 4.0625 124.9375 C7.83969523 126.69278484 11.56480357 128.01985599 15.5625 129.1875 C26.89511106 132.51425695 37.6818093 137.47620151 48.4375 142.3125 C49.20658691 142.65812988 49.97567383 143.00375977 50.76806641 143.35986328 C60.21077251 147.63739543 69.26554322 151.83745228 77.4375 158.3125 C78.25863281 158.94542969 79.07976563 159.57835937 79.92578125 160.23046875 C81.46645846 161.42222066 83.00124013 162.6216732 84.52734375 163.83203125 C86.11302973 165.06101895 87.76824643 166.19966429 89.4375 167.3125 C89.4375 167.9725 89.4375 168.6325 89.4375 169.3125 C90.02015625 169.55355469 90.6028125 169.79460937 91.203125 170.04296875 C103.18418056 176.85038668 110.41282904 194.8931408 114.18359375 207.59765625 C121.87851815 235.54723559 120.86738002 267.02941106 107.9609375 293.3203125 C106.54636466 295.73340734 105.0409281 298.0213172 103.4375 300.3125 C102.86902344 301.18519531 102.30054687 302.05789063 101.71484375 302.95703125 C98.37513453 307.9702651 95.17301126 311.62932458 90.4375 315.3125 C89.756875 316.17875 89.07625 317.045 88.375 317.9375 C86.2780719 320.507928 84.39022538 321.83613731 81.4375 323.3125 C80.7775 323.3125 80.1175 323.3125 79.4375 323.3125 C79.1075 324.3025 78.7775 325.2925 78.4375 326.3125 C75.93190531 327.74974925 73.48065581 329.0231217 70.875 330.25 C70.18341797 330.58451172 69.49183594 330.91902344 68.77929688 331.26367188 C67.37097106 331.94486582 65.95993835 332.62048901 64.54638672 333.29077148 C63.1664965 333.95931056 61.79745538 334.65084509 60.44189453 335.36743164 C55.56622932 337.93945687 50.77978542 339.54759685 45.4375 340.875 C44.60935791 341.08552002 43.78121582 341.29604004 42.92797852 341.51293945 C35.15080143 343.45183343 27.35446681 345.05956757 19.4375 346.3125 C18.20644531 346.51875 16.97539062 346.725 15.70703125 346.9375 C-23.93209807 352.8308035 -70.86717267 348.77552127 -107.3503418 332.28393555 C-109.8028089 331.20697201 -112.28526281 330.23326611 -114.78125 329.26171875 C-118.348495 327.84762607 -121.61932613 326.30189529 -124.875 324.25 C-126.04482422 323.52103516 -126.04482422 323.52103516 -127.23828125 322.77734375 C-128.00527344 322.29394531 -128.77226562 321.81054688 -129.5625 321.3125 C-131.22710892 320.3090784 -132.89323212 319.30815181 -134.5625 318.3125 C-133.86739763 306.95916121 -128.92509608 296.11212001 -124.8125 285.625 C-123.22741532 281.4245256 -121.83130008 277.1698321 -120.43969727 272.90283203 C-119.08260151 268.77679316 -117.59194671 264.72822102 -116 260.6875 C-114.32175174 256.41607062 -112.86533432 252.15033599 -111.5625 247.75 C-106.69759115 231.44759115 -106.69759115 231.44759115 -103.5625 228.3125 C-98.81072489 228.17505196 -95.43754673 228.64225144 -91.625 231.5625 C-87.23956017 237.40975311 -87.31428615 242.21082607 -87.5625 249.3125 C-86.7413269 249.46924194 -86.7413269 249.46924194 -85.90356445 249.62915039 C-81.05637489 250.62070319 -76.61164876 251.96769324 -72.03125 253.82568359 C-61.35430369 258.1517665 -50.96672652 260.06019791 -39.5625 261.3125 C-38.09490234 261.50779297 -38.09490234 261.50779297 -36.59765625 261.70703125 C-21.11013872 263.54204518 2.92042315 265.59890263 16.12109375 255.6171875 C19.32939009 252.43745166 19.55232979 249.25696025 19.75 244.9375 C19.59204008 240.39427182 18.90755398 237.23552692 16.4375 233.3125 C6.19425386 224.22735966 -7.08524928 219.57610601 -19.75585938 214.98095703 C-22.17386172 214.08629616 -24.55514277 213.11015716 -26.9375 212.125 C-29.99187126 210.88100111 -33.00843039 209.87371781 -36.1875 209 C-42.28146951 207.25062705 -47.9549594 204.59696841 -53.7265625 202.0078125 C-56.76195158 200.64967998 -59.82351745 199.41897137 -62.9375 198.25 C-67.301307 196.53956308 -71.16578472 194.28871424 -75.1328125 191.8046875 C-77.38042676 190.4243199 -79.65732862 189.20885178 -82 188 C-89.69005377 183.77934882 -96.61696326 177.72854684 -102.5625 171.3125 C-102.5625 170.6525 -102.5625 169.9925 -102.5625 169.3125 C-103.45195312 168.94898438 -103.45195312 168.94898438 -104.359375 168.578125 C-108.69088587 166.08981024 -110.91731252 161.43021088 -113.5625 157.3125 C-114.24054687 156.31089844 -114.91859375 155.30929687 -115.6171875 154.27734375 C-129.82494285 131.78619897 -129.84786367 102.36682311 -124.29638672 77.17602539 C-122.43646486 69.29247165 -119.56866036 62.35607666 -115.5625 55.3125 C-115.12292969 54.47460938 -114.68335937 53.63671875 -114.23046875 52.7734375 C-105.42246101 36.78195371 -88.52905814 20.92658199 -71.5625 14.3125 C-70.74523438 13.88453125 -69.92796875 13.4565625 -69.0859375 13.015625 C-61.8024521 9.28740292 -54.54370962 7.04664342 -46.625 5.0625 C-45.64926025 4.81653076 -44.67352051 4.57056152 -43.66821289 4.31713867 C-29.07186593 0.80990205 -14.93962021 -0.06038249 0 0 Z " fill="#1B242B" transform="translate(2951.5625,255.6875)"/>
<path d="M0 0 C92.73 0 185.46 0 281 0 C281 32.01 281 64.02 281 97 C277.78595505 98.60702248 274.48631994 98.47481596 271 98 C267.11262078 95.9067958 263.80265039 93.42546159 261 90 C260.67 88.35 260.34 86.7 260 85 C236.24 85 212.48 85 188 85 C188 160.24 188 235.48 188 313 C190.31 313.66 192.62 314.32 195 315 C198.16084305 318.24627124 200.77509295 321.73186959 201.23046875 326.32421875 C201.21628906 327.10410156 201.20210937 327.88398437 201.1875 328.6875 C201.17783203 329.86892578 201.17783203 329.86892578 201.16796875 331.07421875 C201 333 201 333 200 334 C164.69 334 129.38 334 93 334 C93 251.83 93 169.66 93 85 C69.24 85 45.48 85 21 85 C20.34 86.98 19.68 88.96 19 91 C16.46308243 94.84911632 14.50657623 96.87335594 10 98 C3.02184874 98.51092437 3.02184874 98.51092437 0 97 C0 64.99 0 32.98 0 0 Z " fill="#1B242B" transform="translate(968,263)"/>
<path d="M0 0 C6.6 0 13.2 0 20 0 C21.32 2.31 22.64 4.62 24 7 C24.96873032 8.35622245 25.96434215 9.69417053 27 11 C29.2819137 13.96648781 31.15343419 16.94737722 32.94140625 20.2265625 C34.13978423 22.23417727 35.50355207 24.02874643 36.9375 25.875 C39.63820705 29.37641919 41.70429626 33.01586799 43.78125 36.91015625 C45.07652411 39.26567056 45.07652411 39.26567056 47.5625 42.0625 C49.54598422 44.45285278 50.6537119 46.14297161 51.9375 48.875 C53.6696705 52.53257116 55.79970207 55.53061261 58.28125 58.71484375 C61.74418204 63.31896931 64.83510002 68.18849666 68 73 C68.99 74.485 68.99 74.485 70 76 C70.33 50.92 70.66 25.84 71 0 C77.6 0 84.2 0 91 0 C91 36.3 91 72.6 91 110 C71 110 71 110 66.125 105.625 C64.453125 102.859375 64.453125 102.859375 63 100 C61.96453769 98.28789895 60.92305897 96.57941914 59.875 94.875 C59.400625 94.05128906 58.92625 93.22757813 58.4375 92.37890625 C56.61641267 89.36520467 54.51325652 86.63877007 52.36328125 83.85546875 C50.74047191 81.64677409 49.43215991 79.30016396 48.1171875 76.8984375 C46.23272876 73.69617544 44.0228531 70.7216579 41.87109375 67.6953125 C39.319408 64.01960652 36.94629655 60.24102671 34.578125 56.4453125 C33.57415131 54.8896503 32.52192949 53.36335574 31.41015625 51.8828125 C30 50 30 50 28.1875 46.75 C25.78214889 42.62654095 22.86424619 38.81899492 20 35 C19.67 59.75 19.34 84.5 19 110 C12.73 110 6.46 110 0 110 C0 73.7 0 37.4 0 0 Z " fill="#1B242C" transform="translate(1156,725)"/>
<path d="M0 0 C6.6 0 13.2 0 20 0 C23.99599647 4.45123657 25.74118384 6.82140727 28 12 C28.78372465 13.32988277 29.59282098 14.64547452 30.4375 15.9375 C31.01371094 16.87142578 31.01371094 16.87142578 31.6015625 17.82421875 C33.80662694 21.25500337 36.15338102 24.58732537 38.48535156 27.93237305 C42.40826101 33.56566451 46.20717427 39.27848204 50 45 C51.02066714 46.52094488 52.04148812 48.04178653 53.0625 49.5625 C55.23980209 52.82256854 57.34725895 56.12098421 59.4375 59.4375 C64.64610501 68.15758045 64.64610501 68.15758045 71 76 C71.33 50.92 71.66 25.84 72 0 C78.27 0 84.54 0 91 0 C91 36.3 91 72.6 91 110 C71 110 71 110 66.3125 105.375 C65.16236732 103.27452295 64.06089534 101.14693039 63 99 C61.90807561 97.23303127 60.76692288 95.50576314 59.61694336 93.77612305 C57.69524072 90.88223219 55.85303168 87.93814799 54 85 C49.28032246 77.45886619 49.28032246 77.45886619 44.25 70.125 C42 67 42 67 40.65625 64.75390625 C38.62103792 61.36988617 36.44517638 58.09421153 34.25 54.8125 C33.81115479 54.15411133 33.37230957 53.49572266 32.92016602 52.81738281 C29.78907309 48.13531064 26.57707845 43.51840502 23.27734375 38.953125 C22 37 22 37 21 34 C20.67 59.08 20.34 84.16 20 110 C13.4 110 6.8 110 0 110 C0 73.7 0 37.4 0 0 Z " fill="#1B252B" transform="translate(1844,725)"/>
<path d="M0 0 C6.6 0 13.2 0 20 0 C20.33 0.99 20.66 1.98 21 3 C21.66 3 22.32 3 23 3 C24.34106445 4.72485352 24.34106445 4.72485352 25.86328125 7.12890625 C26.42080078 7.99966797 26.97832031 8.87042969 27.55273438 9.76757812 C28.13345703 10.68990234 28.71417969 11.61222656 29.3125 12.5625 C30.45291733 14.35642941 31.59482035 16.14941529 32.73828125 17.94140625 C33.29080566 18.80781738 33.84333008 19.67422852 34.41259766 20.56689453 C35.80378007 22.6992421 37.23836996 24.77751613 38.73046875 26.83984375 C40.64643273 29.50768344 42.33151242 32.17674338 44 35 C45.55795517 37.41280719 47.15303056 39.80038708 48.75 42.1875 C49.19029541 42.84733887 49.63059082 43.50717773 50.08422852 44.18701172 C53.16505598 48.79003147 56.30851667 53.34362285 59.52734375 57.8515625 C61.11651501 60.1699821 62.553861 62.58976833 64 65 C66.31 68.3 68.62 71.6 71 75 C71.33 50.25 71.66 25.5 72 0 C78.27 0 84.54 0 91 0 C91 36.3 91 72.6 91 110 C84.4 110 77.8 110 71 110 C70.34 108.02 69.68 106.04 69 104 C68.34 104 67.68 104 67 104 C65.8425293 102.44287109 65.8425293 102.44287109 64.57421875 100.2734375 C64.10693359 99.48839844 63.63964844 98.70335937 63.15820312 97.89453125 C62.67287109 97.06308594 62.18753906 96.23164062 61.6875 95.375 C58.45062596 89.85249653 55.18176797 84.84821436 51 80 C50 78 49 76 48 74 C46.370836 71.5628056 44.67383628 69.18039975 42.97265625 66.79296875 C30.00646123 48.43489066 30.00646123 48.43489066 29 43 C28.34 43 27.68 43 27 43 C25.02 40.03 23.04 37.06 21 34 C20.67 59.08 20.34 84.16 20 110 C13.4 110 6.8 110 0 110 C0 73.7 0 37.4 0 0 Z " fill="#1C252B" transform="translate(659,725)"/>
<path d="M0 0 C11.03313257 11.60756856 15.84152166 26.56649506 15.66015625 42.3112793 C15.34275534 52.28957031 12.79105127 60.48834629 8.5 69.4375 C8.18095703 70.11248535 7.86191406 70.7874707 7.53320312 71.48291016 C5.1431541 76.19111817 2.52160309 78.82192889 -1.6875 82 C-2.55375 82.86625 -3.42 83.7325 -4.3125 84.625 C-8.48157259 88.79407259 -12.65356027 90.99632648 -18.125 93.125 C-18.78048828 93.38925781 -19.43597656 93.65351562 -20.11132812 93.92578125 C-32.71045207 98.90477306 -49.72608356 99.29698276 -62.296875 94.125 C-63.08578125 93.75375 -63.8746875 93.3825 -64.6875 93 C-65.39390625 92.71125 -66.1003125 92.4225 -66.828125 92.125 C-78.32048758 87.05750154 -87.60134184 77.38067567 -93.06640625 66.171875 C-99.78959991 48.80569211 -99.21271531 30.35655964 -91.8515625 13.24609375 C-85.41064713 0.81815302 -73.91321947 -8.74887588 -60.6875 -13 C-39.25122732 -19.63884564 -16.65060777 -15.08783742 0 0 Z M-72.21484375 17.75 C-74.92162845 21.88556496 -75.86842407 26.17443637 -76.6875 31 C-76.86410156 32.0003125 -77.04070313 33.000625 -77.22265625 34.03125 C-78.71660451 45.75076647 -76.13638673 57.70509966 -69.25 67.3984375 C-67.53454955 69.15677421 -65.93498759 70.0409428 -63.6875 71 C-63.6875 71.66 -63.6875 72.32 -63.6875 73 C-61.94068707 73.98484108 -60.1899149 74.96266187 -58.4375 75.9375 C-57.46296875 76.48277344 -56.4884375 77.02804687 -55.484375 77.58984375 C-48.15644969 81.28451 -37.85185424 81.29108856 -29.953125 79.31640625 C-27.72733786 78.36531636 -25.74586418 77.27098992 -23.6875 76 C-22.93082031 75.61070312 -22.17414062 75.22140625 -21.39453125 74.8203125 C-12.86432469 69.99081532 -8.62350983 61.7042708 -5.75 52.5625 C-2.52413418 38.65721505 -5.28037176 26.77117531 -12.60546875 14.7734375 C-17.65465954 8.04749855 -25.38123233 3.39266763 -33.6875 2 C-49.8473656 0.5762233 -61.81346977 5.23991922 -72.21484375 17.75 Z " fill="#1B242B" transform="translate(3226.6875,739)"/>
<path d="M0 0 C0.78761719 0.23203125 1.57523438 0.4640625 2.38671875 0.703125 C14.59522807 4.91956464 25.4400047 15.24273631 31.375 26.640625 C32.38854732 29.07015754 33.23451109 31.48239202 34 34 C34.5878125 35.8253125 34.5878125 35.8253125 35.1875 37.6875 C38.66805673 53.24025801 37.53482368 71.39387745 29.03125 85.1953125 C27.11320572 87.91254189 25.23806919 90.53909275 23 93 C22.34 93 21.68 93 21 93 C20.73574219 93.60070312 20.47148438 94.20140625 20.19921875 94.8203125 C15.67885983 103.03646976 4.34267238 106.13191442 -4 109 C-9.2413435 110.22347599 -14.32870409 110.22128576 -19.6875 110.25 C-21.10192383 110.2809375 -21.10192383 110.2809375 -22.54492188 110.3125 C-35.89583256 110.38590707 -49.26852253 105.25677125 -59 96 C-60.2684375 94.824375 -60.2684375 94.824375 -61.5625 93.625 C-71.93504115 82.45457106 -76.16543583 68.81206899 -76.25 53.8125 C-76.270625 52.91724609 -76.29125 52.02199219 -76.3125 51.09960938 C-76.3501742 44.57726339 -75.19132903 39.12625935 -73 33 C-72.67 32.02289062 -72.34 31.04578125 -72 30.0390625 C-66.88200052 17.68389188 -56.41834093 7.52365769 -44.421875 1.76171875 C-30.27812518 -3.92473037 -14.57336291 -4.3063631 0 0 Z M-47.6875 26.96484375 C-55.18514777 37.33034179 -57.12609453 48.40442416 -56 61 C-55.39634139 64.56208471 -54.41623737 67.6810315 -53 71 C-52.62101563 71.91523437 -52.24203125 72.83046875 -51.8515625 73.7734375 C-48.20184213 81.47371459 -43.28023245 85.71380254 -36 90 C-35.36449219 90.3815625 -34.72898437 90.763125 -34.07421875 91.15625 C-26.64619653 94.71379501 -16.44204342 94.10666826 -8.61328125 92.15625 C-0.37243667 89.03295935 7.16516202 84.0073822 11.375 76.0625 C11.93797109 74.71705075 12.48013214 73.36268395 13 72 C13.29648438 71.38253906 13.59296875 70.76507812 13.8984375 70.12890625 C18.34205101 59.67214602 17.22041351 45.34399098 13.44140625 34.90234375 C8.56844074 25.09038338 0.92360165 20.03798205 -9 16 C-22.69342699 11.43552434 -38.39567474 16.1458898 -47.6875 26.96484375 Z " fill="#1B242B" transform="translate(1053,726)"/>
<path d="M0 0 C12.65281175 13.33600893 15.44334828 28.84347086 15.12109375 46.50390625 C14.84615712 53.12186006 13.49640547 58.84814145 10.80859375 64.90625 C10.40769531 65.84339844 10.00679687 66.78054688 9.59375 67.74609375 C2.83356319 81.71714648 -8.32156259 89.53227821 -22.46655273 94.74462891 C-28.76225119 96.84505824 -34.51760143 97.38008146 -41.12890625 97.28125 C-42.0923999 97.27327393 -43.05589355 97.26529785 -44.04858398 97.25708008 C-52.93204111 97.07891478 -60.70130001 95.97308658 -68.19140625 90.90625 C-68.9390625 90.64972656 -69.68671875 90.39320313 -70.45703125 90.12890625 C-73.8679534 88.60373678 -76.36524508 86.426439 -79.06640625 83.90625 C-79.59161865 83.41858154 -80.11683105 82.93091309 -80.65795898 82.4284668 C-91.16410622 72.4112788 -96.87896568 60.50028139 -97.52734375 45.9609375 C-97.83840555 28.48963322 -95.38695141 14.0839073 -83.19140625 0.90625 C-72.93988749 -9.50127013 -60.36790645 -15.28759473 -45.6640625 -16.09765625 C-28.26163443 -16.07016426 -12.99956674 -11.92716788 0 0 Z M-69.69140625 14.65625 C-71.37630632 16.73290619 -71.37630632 16.73290619 -71.19140625 18.90625 C-71.85140625 18.90625 -72.51140625 18.90625 -73.19140625 18.90625 C-78.27954772 33.44379706 -79.59089544 47.38740889 -73.19140625 61.90625 C-68.85369099 70.01235539 -60.39645509 76.6225959 -51.64453125 79.46875 C-40.37009026 81.47947833 -30.33558091 80.34203605 -20.57421875 74.28125 C-13.67377022 69.36698399 -10.27087929 63.70896885 -7.19140625 55.90625 C-6.81886719 54.97167969 -6.44632813 54.03710938 -6.0625 53.07421875 C-2.91652299 41.63301985 -4.66895315 29.26450198 -10.19140625 18.90625 C-13.90160889 12.41875694 -18.69704872 8.50674874 -25.19140625 4.90625 C-25.78308594 4.56464844 -26.37476562 4.22304688 -26.984375 3.87109375 C-41.78783591 -3.1548314 -59.31313374 3.24015024 -69.69140625 14.65625 Z " fill="#1B242B" transform="translate(3399.19140625,739.09375)"/>
<path d="M0 0 C59.24484536 0 59.24484536 0 73 9 C73.63035156 9.35578125 74.26070312 9.7115625 74.91015625 10.078125 C86.90998354 17.40375988 91.36034324 30.57673999 94.609375 43.40625 C96.25203125 54.31348752 95.46482749 65.55717109 92 76 C91.79503906 76.7115625 91.59007812 77.423125 91.37890625 78.15625 C89.48922423 84.07177632 86.0069184 89.28825017 82 94 C81.34 94 80.68 94 80 94 C79.505 95.485 79.505 95.485 79 97 C59.35700094 115.79670205 21.63000015 110 0 110 C0 73.7 0 37.4 0 0 Z M19 16 C19 41.74 19 67.48 19 94 C41.5243884 95.37853461 41.5243884 95.37853461 61 87 C61.87978516 86.35224609 61.87978516 86.35224609 62.77734375 85.69140625 C70.42745312 79.72335053 73.32776244 71.3742952 75 62 C75.55433026 54.76812209 75.41015428 47.87441731 73 41 C72.731875 40.18789063 72.46375 39.37578125 72.1875 38.5390625 C68.2647819 27.65351978 62.63615814 23.37031418 52.4375 18.3828125 C41.70073636 14.06370531 30.64203058 16 19 16 Z " fill="#1C242B" transform="translate(822,725)"/>
<path d="M0 0 C6.6 0 13.2 0 20 0 C20 15.18 20 30.36 20 46 C36.17 46 52.34 46 69 46 C69 30.82 69 15.64 69 0 C75.27 0 81.54 0 88 0 C88 36.3 88 72.6 88 110 C81.73 110 75.46 110 69 110 C69 94.49 69 78.98 69 63 C52.83 63 36.66 63 20 63 C20 78.51 20 94.02 20 110 C13.4 110 6.8 110 0 110 C0 73.7 0 37.4 0 0 Z " fill="#1B242C" transform="translate(2975,725)"/>
<path d="M0 0 C10.30132412 6.75054005 17.03611946 15.02653967 20 27 C20.37501216 30.72887479 20.35203501 34.41558578 20.29296875 38.16015625 C20.28872391 39.19063583 20.28447906 40.22111542 20.28010559 41.28282166 C20.26344216 44.54299115 20.22581301 47.80252039 20.1875 51.0625 C20.17243722 53.2857983 20.15875162 55.50910639 20.14648438 57.73242188 C20.11357924 63.15516281 20.06350457 68.57753564 20 74 C18.23062813 74.03721037 16.4610313 74.06383333 14.69140625 74.0859375 C13.70599854 74.10188965 12.72059082 74.1178418 11.70532227 74.13427734 C7.26095663 73.91368344 5.03339777 72.03339777 2 69 C1.33097656 69.3609375 0.66195312 69.721875 -0.02734375 70.09375 C-9.68166113 74.7589235 -19.54718319 75.74158513 -29.9921875 73.30078125 C-32.48341175 72.3811237 -34.69215632 71.30996821 -37 70 C-37.76570313 69.59910156 -38.53140625 69.19820313 -39.3203125 68.78515625 C-48.29710324 63.5360159 -54.23178649 54.6917452 -57.37890625 44.88671875 C-59.88161642 33.25462559 -57.63580649 23.02542022 -51.6875 12.9375 C-40.15386296 -3.61540502 -18.07068083 -9.09647262 0 0 Z " fill="#1B242B" transform="translate(210,267)"/>
<path d="M0 0 C0.69351563 0.33902344 1.38703125 0.67804687 2.1015625 1.02734375 C11.59640534 6.17802104 17.45113449 15.78888963 20.58203125 25.875 C22.71474421 36.71795189 20.84486206 47.04254929 14.8125 56.1875 C8.92946582 64.07695847 1.06877503 71.5302061 -9 73 C-19.52640793 73.7387853 -29.37100325 73.84695567 -39 69 C-39.433125 69.474375 -39.86625 69.94875 -40.3125 70.4375 C-43.5807254 73.46363463 -46.95961558 73.10796112 -51.1875 73.0625 C-52.27417969 73.05347656 -53.36085938 73.04445313 -54.48046875 73.03515625 C-55.31191406 73.02355469 -56.14335937 73.01195312 -57 73 C-57.10205759 66.48972073 -57.17173938 59.97965045 -57.21972656 53.46875 C-57.23974747 51.25740855 -57.26697259 49.04611942 -57.30175781 46.83496094 C-57.35069627 43.64244622 -57.37306467 40.45063604 -57.390625 37.2578125 C-57.41127014 36.28135773 -57.43191528 35.30490295 -57.45318604 34.29885864 C-57.45670076 23.36091022 -53.16212862 14.19744622 -46 6 C-33.45502478 -5.05096116 -14.81483025 -8.10269597 0 0 Z " fill="#1B242B" transform="translate(3923,524)"/>
<path d="M0 0 C7.59 0 15.18 0 23 0 C25.47297882 5.56420234 27.62136448 10.54394099 29.4375 16.25 C31.35798305 22.18562899 33.4845939 28.00485041 35.7890625 33.8046875 C36.7309337 36.29001216 37.59904737 38.7663369 38.4296875 41.2890625 C40.00477929 46.07048373 41.73846601 50.78462735 43.5 55.5 C45.51441559 60.89230024 47.4448538 66.29514041 49.24511719 71.76269531 C50.53395577 75.58252609 51.96156198 79.34991798 53.375 83.125 C62 106.36171063 62 106.36171063 62 110 C55.07 110 48.14 110 41 110 C37.58893808 102.32511068 35.61684709 96.08423547 34 88 C19.15 88 4.3 88 -11 88 C-11.33 89.98 -11.66 91.96 -12 94 C-12.35086217 95.28726407 -12.73241635 96.56691541 -13.15625 97.83203125 C-13.37410156 98.48494141 -13.59195312 99.13785156 -13.81640625 99.81054688 C-14.04199219 100.47119141 -14.26757812 101.13183594 -14.5 101.8125 C-14.72558594 102.49248047 -14.95117188 103.17246094 -15.18359375 103.87304688 C-16.86624765 108.86624765 -16.86624765 108.86624765 -18 110 C-19.4887186 110.08669432 -20.981445 110.10703494 -22.47265625 110.09765625 C-23.37177734 110.09443359 -24.27089844 110.09121094 -25.19726562 110.08789062 C-26.61555664 110.07532227 -26.61555664 110.07532227 -28.0625 110.0625 C-29.01189453 110.05798828 -29.96128906 110.05347656 -30.93945312 110.04882812 C-33.29303065 110.0370011 -35.64648477 110.02052025 -38 110 C-37.32229211 104.9530695 -35.94119045 100.36244364 -34.3125 95.5625 C-34.04775879 94.77335205 -33.78301758 93.9842041 -33.51025391 93.17114258 C-31.78707967 88.10798237 -29.90775281 83.13366989 -27.875 78.1875 C-25.59508407 72.6294666 -23.75629108 67.07138966 -22.0625 61.3125 C-20.88176406 57.63138207 -19.47193183 54.07124444 -18 50.5 C-15.71145805 44.93858181 -13.83044918 39.35267296 -12.12890625 33.5859375 C-9.95783837 26.68960424 -7.34676635 19.94555544 -4.81201172 13.17626953 C-3.17739731 8.79534564 -1.59283893 4.39623544 0 0 Z M11 26 C10.31152234 27.9163157 9.62431938 29.83308933 8.9375 31.75 C8.71852051 32.36109619 8.49954102 32.97219238 8.27392578 33.60180664 C6.90239549 37.44048233 5.55025333 41.28532011 4.21484375 45.13671875 C3.91006104 46.01424805 3.60527832 46.89177734 3.29125977 47.79589844 C2.6919661 49.52367821 2.09471366 51.2521677 1.49975586 52.98144531 C0.22341742 56.65782709 -1.08198241 60.24938796 -2.7109375 63.78515625 C-4.31014027 67.19619529 -4.31014027 67.19619529 -4 72 C6.23 72 16.46 72 27 72 C26.21768632 65.13387106 26.21768632 65.13387106 24.2578125 58.9765625 C23.91363281 58.1 23.56945313 57.2234375 23.21484375 56.3203125 C22.85519531 55.43085937 22.49554687 54.54140625 22.125 53.625 C19.69913206 47.5470012 17.45661069 41.51842482 15.67602539 35.21679688 C14.70012763 32.01666988 13.38842243 29.04130627 12 26 C11.67 26 11.34 26 11 26 Z " fill="#1B242B" transform="translate(1717,725)"/>
<path d="M0 0 C0.66128906 0.50015625 1.32257812 1.0003125 2.00390625 1.515625 C7.99078557 6.19606956 11.88186773 12.09138818 15 19 C15 20.32 15 21.64 15 23 C7.08 23 -0.84 23 -9 23 C-10.65 20.03 -12.3 17.06 -14 14 C-16.63663048 11.7754335 -16.63663048 11.7754335 -19.5625 10.5 C-20.49191406 10.0359375 -21.42132812 9.571875 -22.37890625 9.09375 C-30.81932739 5.57166666 -41.44904574 5.58319742 -49.921875 9.05078125 C-50.95054687 9.52064453 -50.95054687 9.52064453 -52 10 C-52.74765625 10.28230469 -53.4953125 10.56460938 -54.265625 10.85546875 C-61.93162591 14.25823446 -65.29190586 20.81501184 -69 28 C-69.39703125 28.73734375 -69.7940625 29.4746875 -70.203125 30.234375 C-71.48814866 34.69416298 -71.32788684 39.13394903 -71.3125 43.75 C-71.32861328 44.70132813 -71.34472656 45.65265625 -71.36132812 46.6328125 C-71.36816165 56.60975758 -68.79683423 65.48631216 -62 73 C-51.7924127 81.25113307 -43.02835409 83.98267391 -30 83 C-22.92017687 81.79445736 -16.97494598 78.14477346 -12 73 C-11.01 71.02 -10.02 69.04 -9 67 C-1.08 67 6.84 67 15 67 C13.41929544 76.48422737 9.03033328 82.68378945 1.734375 88.8203125 C0 90 0 90 -2 90 C-2 90.66 -2 91.32 -2 92 C-18.06515723 101.03202388 -35.66708259 104.10519038 -53.625 99.3125 C-63.17488868 96.1030192 -70.22668814 92.48904842 -77 85 C-78.2684375 83.8553125 -78.2684375 83.8553125 -79.5625 82.6875 C-90.73173782 70.37269932 -93.72894678 55.16106427 -93.12304688 39.0234375 C-92.29679126 25.43612287 -86.22621295 12.21252493 -76.25 2.9375 C-56.34171827 -14.51261856 -20.59029178 -18.86276163 0 0 Z " fill="#1B242B" transform="translate(2891,735)"/>
<path d="M0 0 C4.99809936 4.64959243 8.78469746 11.48313757 10.296875 18.13671875 C10.296875 20.11671875 10.296875 22.09671875 10.296875 24.13671875 C3.036875 24.13671875 -4.223125 24.13671875 -11.703125 24.13671875 C-12.693125 21.82671875 -13.683125 19.51671875 -14.703125 17.13671875 C-18.234894 12.7220075 -21.12532435 11.0511123 -26.703125 10.13671875 C-33.4711792 10.14731038 -38.53155889 10.96515264 -43.453125 15.88671875 C-45.20786079 19.04524317 -45.5787652 21.53028456 -45.703125 25.13671875 C-44.27413798 29.90000881 -41.80667061 32.44957705 -37.5078125 34.9296875 C-33.84416424 36.50638292 -30.11793038 37.50048859 -26.265625 38.51171875 C1.70945865 45.89467791 1.70945865 45.89467791 9.296875 58.13671875 C12.4414934 65.53220568 12.54706806 75.11463639 10.609375 82.8984375 C9.67213037 85.13610905 8.59563048 87.08994587 7.296875 89.13671875 C6.93078125 89.81992187 6.5646875 90.503125 6.1875 91.20703125 C1.79457536 98.33875459 -6.74013771 102.36416472 -14.6184082 104.70605469 C-25.46832895 106.94744832 -38.917111 106.40080036 -48.703125 101.13671875 C-49.42371094 100.77449219 -50.14429687 100.41226563 -50.88671875 100.0390625 C-58.46692857 95.81191336 -63.67964129 89.78595757 -66.29296875 81.5078125 C-66.703125 79.13671875 -66.703125 79.13671875 -66.703125 72.13671875 C-59.773125 72.13671875 -52.843125 72.13671875 -45.703125 72.13671875 C-44.713125 74.77671875 -43.723125 77.41671875 -42.703125 80.13671875 C-40.55970708 83.48474885 -38.29897872 85.42416108 -34.703125 87.13671875 C-31.88113877 87.55531812 -29.39977878 87.80103501 -26.578125 87.82421875 C-25.8972583 87.83130859 -25.2163916 87.83839844 -24.51489258 87.84570312 C-19.51448803 87.6656618 -16.52849257 86.29363002 -12.703125 83.13671875 C-9.88273805 79.56521047 -8.76986558 76.08777203 -8.453125 71.57421875 C-10.28079985 66.54811292 -13.23756523 63.9797918 -17.703125 61.13671875 C-20.94810387 59.73761554 -24.27267683 58.96109002 -27.703125 58.13671875 C-55.70031216 50.91768078 -55.70031216 50.91768078 -63.46484375 39.51171875 C-67.45314838 31.86222595 -67.27186383 23.46487637 -65.703125 15.13671875 C-63.52542008 8.29588481 -58.68634602 1.51960142 -52.49609375 -2.18359375 C-36.09136091 -9.72921192 -15.39505984 -10.61191264 0 0 Z " fill="#1B242B" transform="translate(2723.703125,730.86328125)"/>
<path d="M0 0 C7.08196867 7.4360671 9.5 13.10186109 9.5 23.625 C2.24 23.625 -5.02 23.625 -12.5 23.625 C-13.16 21.315 -13.82 19.005 -14.5 16.625 C-19.15882451 11.86029311 -23.3249107 9.9777877 -29.875 9.25 C-33.86744553 9.66301161 -36.35417647 10.7998582 -39.80078125 12.75 C-41.5 13.625 -41.5 13.625 -43.5 13.625 C-45.71584729 22.76757069 -45.71584729 22.76757069 -43.5 31.625 C-40.13058735 33.76989926 -36.23680764 34.68428869 -32.4375 35.8125 C-26.06844485 37.76306031 -19.7666132 39.86659975 -13.5 42.125 C-12.33585571 42.53335083 -12.33585571 42.53335083 -11.14819336 42.94995117 C-2.08229756 46.26531743 4.64653199 50.22379269 9.25 58.9375 C12.24170455 67.64815357 11.81860837 79.20382555 7.8046875 87.453125 C1.96789647 97.16945977 -5.87322421 101.0827414 -16.5 104.625 C-19.84950383 104.88083527 -23.20424791 104.8564076 -26.5625 104.875 C-27.46677734 104.895625 -28.37105469 104.91625 -29.30273438 104.9375 C-40.69470666 105.00264352 -50.66061318 101.49967331 -59.35546875 94.03125 C-65.51579578 87.58191998 -66.5 80.28329891 -66.5 71.625 C-59.57 71.625 -52.64 71.625 -45.5 71.625 C-44.943125 73.1925 -44.38625 74.76 -43.8125 76.375 C-41.76490468 81.52677897 -39.49150005 84.12924997 -34.5 86.625 C-32.08656122 86.7751182 -29.6679357 86.8465537 -27.25 86.875 C-25.29320312 86.91367187 -25.29320312 86.91367187 -23.296875 86.953125 C-18.60943374 86.54803748 -15.11768084 85.52989311 -12.00390625 81.86328125 C-9.43740429 76.61313409 -8.91405021 73.31576102 -10.5 67.625 C-15.85540003 60.48446663 -24.16538998 58.24453418 -32.5 56.375 C-39.12915412 54.75130736 -45.24989361 52.71263478 -51.375 49.6875 C-52.02210937 49.37586914 -52.66921875 49.06423828 -53.3359375 48.74316406 C-58.907194 45.84835335 -62.30654381 42.45530166 -64.76171875 36.6328125 C-67.08409996 27.17125944 -67.32292581 17.71420115 -63.5 8.625 C-61.47077539 5.57116691 -59.18411668 3.11006982 -56.5 0.625 C-55.4171875 -0.48875 -55.4171875 -0.48875 -54.3125 -1.625 C-38.77454586 -11.29306035 -14.72318214 -11.31399747 0 0 Z " fill="#1B242B" transform="translate(1513.5,731.375)"/>
<path d="M0 0 C20.13 0 40.26 0 61 0 C61 5.28 61 10.56 61 16 C47.47 16 33.94 16 20 16 C20 25.9 20 35.8 20 46 C32.21 46 44.42 46 57 46 C57 51.61 57 57.22 57 63 C44.79 63 32.58 63 20 63 C20 73.23 20 83.46 20 94 C33.53 94 47.06 94 61 94 C61 99.28 61 104.56 61 110 C40.87 110 20.74 110 0 110 C0 73.7 0 37.4 0 0 Z " fill="#1C242B" transform="translate(1318,725)"/>
<path d="M0 0 C20.46 0 40.92 0 62 0 C62 5.28 62 10.56 62 16 C47.81 16 33.62 16 19 16 C19 25.9 19 35.8 19 46 C31.21 46 43.42 46 56 46 C56 51.61 56 57.22 56 63 C43.79 63 31.58 63 19 63 C19 73.23 19 83.46 19 94 C33.19 94 47.38 94 62 94 C62 99.28 62 104.56 62 110 C41.54 110 21.08 110 0 110 C0 73.7 0 37.4 0 0 Z " fill="#1B242B" transform="translate(2438,725)"/>
<path d="M0 0 C21.78 0 43.56 0 66 0 C66 5.28 66 10.56 66 16 C50.82 16 35.64 16 20 16 C20 25.9 20 35.8 20 46 C31.55 46 43.1 46 55 46 C55 51.61 55 57.22 55 63 C43.45 63 31.9 63 20 63 C20 78.51 20 94.02 20 110 C13.4 110 6.8 110 0 110 C0 73.7 0 37.4 0 0 Z " fill="#1B242C" transform="translate(2307,725)"/>
<path d="M0 0 C6.6 0 13.2 0 20 0 C20 31.02 20 62.04 20 94 C31.88 94 43.76 94 56 94 C56 99.28 56 104.56 56 110 C37.52 110 19.04 110 0 110 C0 73.7 0 37.4 0 0 Z " fill="#1B252B" transform="translate(2097,725)"/>
<path d="M0 0 C6.27 0 12.54 0 19 0 C19 31.02 19 62.04 19 94 C31.21 94 43.42 94 56 94 C56 99.28 56 104.56 56 110 C37.52 110 19.04 110 0 110 C0 73.7 0 37.4 0 0 Z " fill="#1B242C" transform="translate(3480,725)"/>
<path d="M0 0 C6.6 0 13.2 0 20 0 C20 36.3 20 72.6 20 110 C13.4 110 6.8 110 0 110 C0 73.7 0 37.4 0 0 Z " fill="#1B252C" transform="translate(2216,725)"/>
<path d="M0 0 C6.6 0 13.2 0 20 0 C20 36.3 20 72.6 20 110 C13.4 110 6.8 110 0 110 C0 73.7 0 37.4 0 0 Z " fill="#1B242C" transform="translate(568,725)"/>
<path d="M0 0 C6.27 0 12.54 0 19 0 C19 36.3 19 72.6 19 110 C12.73 110 6.46 110 0 110 C0 73.7 0 37.4 0 0 Z " fill="#1C252B" transform="translate(1594,725)"/>
</svg>
